<svg xmlns="http://www.w3.org/2000/svg" width="54.831" height="53.454" viewBox="0 0 54.831 53.454">
  <g id="Group_116" data-name="Group 116" transform="translate(-1433.313 -7031.769)">
    <path id="Path_312" data-name="Path 312" d="M136.037,110.9l.4.4c18.5,17.767,33.147,10.342,33.147,10.342a14.491,14.491,0,0,0,5.171-3.845,3.413,3.413,0,0,0-.2-5.171l-7.359-7.027a2.881,2.881,0,0,0-4.376-.2l-3.514,3.315a2.928,2.928,0,0,1-3.381.53,41.849,41.849,0,0,1-10.607-7.425l-.332-.265a43.024,43.024,0,0,1-7.955-10.209,2.9,2.9,0,0,1,.4-3.381l3.182-3.646s2.055-2.055-.4-4.309l-7.226-7.094a3.37,3.37,0,0,0-5.171.066,15.345,15.345,0,0,0-3.646,5.3c.067,0-6.7,14.983,11.867,32.617Z" transform="translate(1310.291 6962.049)" fill="#fff"/>
    <line id="Line_3" data-name="Line 3" y2="15.155" transform="translate(1479.744 7033.769)" fill="none" stroke="#fff" stroke-linecap="round" stroke-width="4"/>
    <line id="Line_4" data-name="Line 4" x2="13.6" transform="translate(1472.544 7040.969)" fill="none" stroke="#fff" stroke-linecap="round" stroke-width="4"/>
  </g>
</svg>
