<svg xmlns="http://www.w3.org/2000/svg" width="106" height="106" viewBox="0 0 106 106">
  <g id="Group_93" data-name="Group 93" transform="translate(-1407 -1439)">
    <circle id="Ellipse_3" data-name="Ellipse 3" cx="53" cy="53" r="53" transform="translate(1407 1439)" fill="#561d5e"/>
    <g id="Polygon_5" data-name="Polygon 5" transform="translate(1433 1466)" fill="#fff">
      <path d="M 11.82072257995605 50.87850570678711 L 15.74279022216797 33.6209716796875 L 15.87362003326416 33.04531860351562 L 15.43282032012939 32.65264892578125 L 2.396971225738525 21.04021072387695 L 19.5263500213623 19.55562973022461 L 20.13545989990234 19.50283050537109 L 20.36610984802246 18.93659973144531 L 27 2.650786161422729 L 33.63388824462891 18.93659973144531 L 33.86454010009766 19.50283050537109 L 34.47365188598633 19.55562973022461 L 51.60302734375 21.04021072387695 L 38.56718063354492 32.65264892578125 L 38.12638092041016 33.04531860351562 L 38.25720977783203 33.6209716796875 L 42.17926788330078 50.87850570678711 L 27.52998924255371 41.72296905517578 L 27 41.39173889160156 L 26.47001075744629 41.72296905517578 L 11.82072257995605 50.87850570678711 Z" stroke="none"/>
      <path d="M 26.99999809265137 5.301605224609375 L 20.8309211730957 20.44630813598633 L 4.793930053710938 21.83621215820312 L 16.97957992553711 32.69128036499023 L 13.328369140625 48.75701904296875 L 27 40.21250152587891 L 40.67162322998047 48.75701904296875 L 37.02042007446289 32.69128036499023 L 49.20606994628906 21.83621215820312 L 33.1690673828125 20.44630813598633 L 26.99999809265137 5.301605224609375 M 27 0 L 34.55999755859375 18.55936050415039 L 54 20.24420166015625 L 39.23233795166016 33.39934921264648 L 43.68690872192383 53 L 27 42.57098007202148 L 10.31307983398438 53 L 14.76765823364258 33.39934921264648 L 0 20.24420166015625 L 19.43999099731445 18.55936050415039 L 27 0 Z" stroke="none" fill="#fff"/>
    </g>
  </g>
</svg>
