<svg xmlns="http://www.w3.org/2000/svg" width="77.612" height="68.895" viewBox="0 0 77.612 68.895">
  <g id="Group_115" data-name="Group 115" transform="translate(-782 -7005)">
    <g id="Group_103" data-name="Group 103" transform="translate(820.806 7005)">
      <path id="Path_310" data-name="Path 310" d="M14.238,16.4c-4.145-1.622-5.768-2.7-5.587-4.326.18-1.442,1.262-2.7,4.326-2.523a14.917,14.917,0,0,1,6.849,2.163l1.8-5.227a18.281,18.281,0,0,0-6.849-1.983L14.96.36,10.273,0l-.18,4.506c-5.227.541-8.471,3.6-8.652,7.931-.18,4.506,3.064,7.21,8.111,9.192,3.6,1.442,5.047,2.7,4.866,4.506s-2.163,2.884-4.866,2.7A16.436,16.436,0,0,1,1.8,26.316L0,31.723a19.532,19.532,0,0,0,7.931,2.523L7.57,38.753l4.686.18.36-4.866c5.587-.541,8.832-3.965,9.012-8.291s-1.8-7.029-7.39-9.373Z" transform="translate(0 1.133) rotate(-3)" fill="#fff"/>
    </g>
    <g id="Group_106" data-name="Group 106" transform="translate(782 7048.5)">
      <path id="Path_308" data-name="Path 308" d="M147.216,385.82a4.2,4.2,0,0,0-1.88-1.516,9.553,9.553,0,0,0-3.457-.485c-5.7,0-14.86,2.487-18.135,3.457-.728-1.7-2.729-3.275-7.582-3.275a33.433,33.433,0,0,0-5.762.607,5.588,5.588,0,0,1-2.79-.182,20.483,20.483,0,0,1-5.944-3.275,24.063,24.063,0,0,0-6.49-3.578,23.654,23.654,0,0,0-11.281-.849,33.5,33.5,0,0,0-4.791,1.456,27.18,27.18,0,0,1-4.124,1.334c-.3.061-.607.182-.97.243a10.411,10.411,0,0,1-2.062.424c-.182,0-.243,0-.3-.061l-1.638-.485v16.255a1.733,1.733,0,0,0,1.88,1.638,6.725,6.725,0,0,0,1.516-.3,5.874,5.874,0,0,1,.667-.182l.243-.061a42.748,42.748,0,0,1,6.126-.607c2.851,0,17.044,3.639,22.259,5.034h.061a16.033,16.033,0,0,0,3.336.364,9.367,9.367,0,0,0,3.7-.607,47.21,47.21,0,0,1,5.034-1.7c5.641-1.577,27.657-8.491,27.839-8.552,3.033-.849,4.61-1.941,4.913-3.275a2.69,2.69,0,0,0-.364-1.82Zm-5.277,2.729c-.243.061-22.2,6.975-27.839,8.552a49.915,49.915,0,0,0-5.4,1.88,6.843,6.843,0,0,1-2.669.425,15.652,15.652,0,0,1-2.79-.3c-2.123-.546-19.166-5.095-22.805-5.095a38.6,38.6,0,0,0-6.49.667l-.243.061c-.364.061-.667.182-1.031.243h-.061c0-5.156,0-10.008-.061-12.312a12.013,12.013,0,0,0,2.123-.485c.3-.061.607-.182.849-.243,1.577-.364,3.033-.91,4.488-1.395a25.565,25.565,0,0,1,4.367-1.334A20.954,20.954,0,0,1,94.449,380a19.382,19.382,0,0,1,5.762,3.215,24.4,24.4,0,0,0,6.672,3.639,7.347,7.347,0,0,0,3.942.182,31.052,31.052,0,0,1,5.216-.546c2.365,0,5.277.425,5.519,2.487l.061.728c-.182.061-.425.182-.607.243a33.375,33.375,0,0,1-3.518.971c-1.213.243-2.426.546-3.639.849a7.406,7.406,0,0,1-3.4.425c-1.092-.182-2.365-.546-3.578-.728s-2.487-.364-3.7-.424-2.487-.061-3.76,0a18.786,18.786,0,0,1-3.7.061,12.412,12.412,0,0,0,3.7.546c1.213.061,2.426.182,3.639.3a33.89,33.89,0,0,1,3.578.667,14.908,14.908,0,0,1,1.759.425c.607.121,1.213.3,1.88.424a8.3,8.3,0,0,0,3.882-.546c1.152-.364,2.3-.667,3.518-1.031a24.662,24.662,0,0,0,3.518-1.334c.121-.061.3.061.425-.061l1.395-.425c.121-.061,12.07-3.7,18.62-3.7,2.3,0,3.033.485,3.154.728l.061.182c0,.243-.789.667-2.911,1.274Z" transform="translate(-70.007 -376.376)" fill="#fff"/>
      <path id="Path_313" data-name="Path 313" d="M1573.363,7059.074v-13.505h4.237l4.9-2.251,7.812-1.853,6.223,1.853,8.872,5.3,7.945,1.985,6.223-1.191,5.164,2.78.662,1.058,13.9-3.838,7.812.662.927,3.176-11.917,3.84-18.406,5.562-8.474,3.045-11.917-3.045-14.83-3.575-7.945,2.119Z" transform="translate(-1571.914 -7040.98)" fill="#fff"/>
    </g>
  </g>
</svg>
