<svg xmlns="http://www.w3.org/2000/svg" width="107.093" height="99.038" viewBox="0 0 107.093 99.038">
  <g id="noun-separate-1186637" transform="translate(-47.366)">
    <path id="Path_299" data-name="Path 299" d="M64.79,190.09a16.684,16.684,0,1,1-16.684,16.684A16.684,16.684,0,0,1,64.79,190.09" transform="translate(-0.74 -156.346)" fill="#561d5e" fill-rule="evenodd"/>
    <path id="Path_300" data-name="Path 300" d="M154.166,378.258a16.684,16.684,0,1,1,6.108,22.789,16.684,16.684,0,0,1-6.108-22.789" transform="translate(-86.133 -304.248)" fill="#561d5e" fill-rule="evenodd"/>
    <path id="Path_301" data-name="Path 301" d="M361.811,394.94a16.683,16.683,0,1,1,22.79,6.106,16.682,16.682,0,0,1-22.79-6.106" transform="translate(-256.917 -304.247)" fill="#561d5e" fill-rule="evenodd"/>
    <path id="Path_302" data-name="Path 302" d="M480.11,223.459a16.684,16.684,0,1,1,16.684-16.684,16.684,16.684,0,0,1-16.684,16.684" transform="translate(-342.334 -156.348)" fill="#561d5e" fill-rule="evenodd"/>
    <path id="Path_303" data-name="Path 303" d="M183.048,18.585a16.684,16.684,0,1,1-22.791-6.106,16.683,16.683,0,0,1,22.791,6.106" transform="translate(-86.119 -8.423)" fill="#561d5e" fill-rule="evenodd"/>
    <path id="Path_304" data-name="Path 304" d="M272.45,190.09a16.684,16.684,0,1,1-16.684,16.684A16.684,16.684,0,0,1,272.45,190.09" transform="translate(-171.537 -156.346)" fill="#561d5e" fill-rule="evenodd"/>
    <path id="Path_305" data-name="Path 305" d="M393.3,0l17.35,17.349L393.3,34.231,376.416,17.349Z" transform="translate(-270.77)" fill="#561d5e" fill-rule="evenodd"/>
  </g>
</svg>
