<svg xmlns="http://www.w3.org/2000/svg" width="59.618" height="51.669" viewBox="0 0 59.618 51.669">
  <g id="noun-consultation-chat-2575751" transform="translate(-87.494 -52.495)">
    <path id="Path_319" data-name="Path 319" d="M118.753,124.606a21.558,21.558,0,0,0-8.326-2.107h-1.073a21.86,21.86,0,0,0-21.86,21.86v19.873a1.987,1.987,0,0,0,1.987,1.987h19.873a21.86,21.86,0,0,0,21.463-17.746,21.416,21.416,0,0,0,.4-4.114v-.119a21.86,21.86,0,0,0-6.4-15.322,22.706,22.706,0,0,0-6.061-4.312ZM117.3,147.7a.795.795,0,0,1-.815.795h-3.16a.815.815,0,0,0-.815.815v3.16a.794.794,0,0,1-.815.795h-4.71a.795.795,0,0,1-.815-.795v-3.16a.815.815,0,0,0-.815-.815h-3.14a.795.795,0,0,1-.815-.795v-4.749a.815.815,0,0,1,.815-.815h3.16a.795.795,0,0,0,.815-.795v-3.16a.815.815,0,0,1,.815-.815h4.729a.815.815,0,0,1,.815.815v3.16a.794.794,0,0,0,.815.795h3.14a.815.815,0,0,1,.815.815Z" transform="translate(0 -62.055)" fill="#fff"/>
    <path id="Path_320" data-name="Path 320" d="M376.785,52.5h-.736a15.9,15.9,0,0,0-10.512,4.63c-.358.377-.7.755-1.014,1.152.517.219,1.014.4,1.51.636a26.361,26.361,0,0,1,7.154,5.067,25.6,25.6,0,0,1,7.572,18.144,15.812,15.812,0,0,1-.1,2.186H390.7a1.987,1.987,0,0,0,1.987-1.987V68.393a15.9,15.9,0,0,0-15.9-15.9Z" transform="translate(-245.571)" fill="#fff"/>
  </g>
</svg>
