<svg xmlns="http://www.w3.org/2000/svg" width="59.618" height="57.495" viewBox="0 0 59.618 57.495">
  <g id="noun-dental-3976280" transform="translate(-67.756 -9.421)">
    <path id="Path_323" data-name="Path 323" d="M112.9,9.907a17.338,17.338,0,0,0-15.183,4.966A17.337,17.337,0,1,0,74.186,40.235,17.115,17.115,0,0,1,80.378,53.25v6.7a6.65,6.65,0,0,0,13.263.607l1.239-13.622h0a2.823,2.823,0,0,1,5.622,0l1.239,13.622h0a6.663,6.663,0,1,0,13.312-.607v-6.7a17.117,17.117,0,0,1,6.192-13.016A17.336,17.336,0,0,0,112.9,9.908ZM97.715,24.3A17.149,17.149,0,0,1,85.468,19.22l1.746-1.746a14.86,14.86,0,0,0,21.052,0l1.746,1.746h0a17.151,17.151,0,0,1-12.3,5.077Z" transform="translate(0 0)" fill="#fff"/>
  </g>
</svg>
