<svg xmlns="http://www.w3.org/2000/svg" width="63.65" height="30.501" viewBox="0 0 63.65 30.501">
  <path id="Path_321" data-name="Path 321" d="M51.824,542.805v.034c-.223-.012-.444-.034-.67-.034-.148,0-.291.017-.437.022-.074-.006-.144-.022-.219-.022H33.921a4.642,4.642,0,1,0,0,9.283h7.294a2.652,2.652,0,0,1,0,5.3H29.279a3.3,3.3,0,0,1-2.126-.8L9.131,539.057a5.317,5.317,0,0,0-7.869.388,5.47,5.47,0,0,0,.515,7.291L21.97,566.445A5.32,5.32,0,0,0,25.728,568H50.487c.106,0,.205-.025.31-.031s.236.018.357.018c.226,0,.447-.022.67-.034V568a11.936,11.936,0,0,0,11.936-11.936V554.74A11.935,11.935,0,0,0,51.824,542.8Z" transform="translate(-0.109 -537.5)" fill="#fff"/>
</svg>
