<svg xmlns="http://www.w3.org/2000/svg" width="604.827" height="628.604" viewBox="0 0 604.827 628.604">
  <path id="Path_349" data-name="Path 349" d="M184.458,317.367v20.378c0,108.68,38.81,194.062,87.326,194.062,9.7,0,20.378-3.882,29.109-10.673a30.171,30.171,0,0,0,11.643-29.109,248.524,248.524,0,0,1-2.912-37.843c0-74.713,25.227-126.135,48.516-126.135s48.516,51.424,48.516,126.135a248.416,248.416,0,0,1-2.912,37.839,30.171,30.171,0,0,0,11.642,29.109c9.7,6.794,19.407,10.673,29.109,10.673,48.516,0,87.326-85.385,87.326-194.062V317.362c-.971-28.138,5.823-54.336,20.378-77.625,12.613-20.378,19.407-42.692,19.407-66.948v-9.7C566.754,102.93,518.242,53.452,459.049,47.62c-21.348-1.941-42.692.971-62.1,9.7a93.454,93.454,0,0,1-75.684,0c-19.407-8.731-40.751-11.642-62.1-9.7-61.129,5.823-109.646,55.31-114.491,115.468-1.941,27.168,4.853,53.365,19.407,76.654,14.55,22.315,21.344,49.483,20.374,77.621Z" transform="translate(-149.541 226.814) rotate(-28)" fill="#fff" opacity="0.23"/>
</svg>
