<svg xmlns="http://www.w3.org/2000/svg" width="43.78" height="21.219" viewBox="0 0 43.78 21.219">
  <path id="Path_322" data-name="Path 322" d="M8.234,104.738c.031,0,.06,0,.091,0s.03,0,.045,0H20.182a3.307,3.307,0,1,0,0-6.615H16.607l0-.016H14.87a1.989,1.989,0,1,1,0-3.978h8.467a2.293,2.293,0,0,1,1.479.555L37.1,107.634a3.7,3.7,0,0,0,5.474-.27,3.806,3.806,0,0,0-.358-5.072L28.171,88.581A3.7,3.7,0,0,0,25.556,87.5H8.333c-.032,0-.062.009-.094.009h0a8.615,8.615,0,1,0,0,17.231Z" transform="translate(0.402 -87.498)" fill="#fff"/>
</svg>
